<svg xmlns="http://www.w3.org/2000/svg" viewBox="0 0 233 233" width="40" height="40">
    <style>.s1{fill:white}</style>
    <path class="s1" d="M116.5 0C49.33 0 1.34 56.24.25 108.81c.04.02 62.61 25.77 62.65 25.79 5.54-3.65 12.27-5.6 19.1-5.29l28.51-41.41C109.33 66.13 128.25 43 154.75 43 179.16 43 199 62.88 199 87.32c0 25.16-20.96 45.05-45.25 44.32l-40.79 29.15c.62 23.31-23.1 39.76-44.73 30.72-10.05-4.19-16.86-12.9-19.08-22.83l-44.1-18.2C19.59 198.25 63.98 233 116.5 233c64.34 0 116.5-52.16 116.5-116.5S180.84 0 116.5 0z"/>
    <path class="s1" d="M72.64 178.42l-14.4-5.97c9.27 19.38 37.16 18.63 45.43-1.21 8.45-20.26-11.52-40.61-31.8-32.92l14.89 6.17c22.4 9.34 8.32 43.28-14.12 33.93zM184.24 87.32c0-16.27-13.23-29.53-29.49-29.53-16.25 0-29.48 13.25-29.48 29.53 0 16.29 13.23 29.54 29.48 29.54 16.26 0 29.49-13.25 29.49-29.54zm-51.58-.04c0-12.25 9.92-22.19 22.14-22.19 12.23 0 22.15 9.94 22.15 22.19 0 12.25-9.92 22.18-22.15 22.18-12.22 0-22.14-9.93-22.14-22.18z"/>
</svg>
